<?xml version="1.0" standalone="no"?>
<!DOCTYPE svg PUBLIC "-//W3C//DTD SVG 20010904//EN"
 "http://www.w3.org/TR/2001/REC-SVG-20010904/DTD/svg10.dtd">
<svg version="1.0" xmlns="http://www.w3.org/2000/svg"
 width="720.000000pt" height="823.000000pt" viewBox="0 0 720.000000 823.000000"
 preserveAspectRatio="xMidYMid meet">
<metadata>
Created by potrace 1.16, written by Peter Selinger 2001-2019
</metadata>
<g transform="translate(0.000000,823.000000) scale(0.100000,-0.100000)"
fill="#000000" stroke="none">
<path d="M1553 8011 c-397 -3 -725 -10 -730 -14 -10 -11 -9 -6226 2 -6510 7
-205 8 -208 29 -205 18 3 22 12 27 68 4 36 7 145 8 242 l1 178 28 7 c15 5 147
8 294 8 241 0 269 -2 285 -17 15 -15 18 -48 24 -244 4 -151 10 -229 18 -237
22 -22 29 12 35 172 3 86 10 192 14 236 l7 80 80 7 c44 3 180 4 303 1 l222 -6
1 -46 c1 -25 4 -136 8 -246 l6 -200 175 -8 c161 -7 908 -3 916 6 2 2 7 75 10
163 4 87 11 169 15 182 l9 23 297 -7 c164 -4 299 -8 300 -9 2 -1 7 -77 11
-168 5 -112 12 -171 20 -179 10 -10 128 -13 544 -11 291 1 532 4 535 7 3 3 8
114 12 248 l6 243 65 6 c153 15 527 6 546 -14 4 -4 11 -111 15 -238 7 -226 14
-268 40 -242 6 6 14 102 20 234 5 123 12 231 14 240 5 14 25 19 101 24 140 11
511 2 526 -13 7 -7 14 -88 19 -234 4 -123 10 -231 14 -240 4 -10 16 -18 26
-18 17 0 19 14 22 247 7 534 2 6472 -6 6480 -10 9 -3869 13 -4914 4z m-56 -73
c13 -14 17 -50 23 -210 8 -233 5 -243 -76 -254 -69 -8 -526 -1 -541 9 -16 10
-18 401 -3 441 12 32 34 34 343 32 205 -2 239 -4 254 -18z m684 8 c23 -10 31
-117 23 -314 l-7 -163 -293 3 c-224 2 -296 6 -306 16 -17 17 -25 393 -9 434 9
23 17 28 58 31 72 7 515 1 534 -7z m3492 -5 c18 -18 17 -435 -1 -453 -10 -10
-78 -13 -303 -13 -247 0 -291 2 -299 15 -11 17 -12 355 -2 415 7 39 8 40 57
47 90 11 534 3 548 -11z m686 13 c23 -5 33 -14 38 -33 10 -38 10 -428 0 -438
-5 -4 -148 -9 -317 -11 l-309 -3 -8 38 c-12 59 -10 410 3 423 6 6 49 15 95 19
103 10 455 13 498 5z m-2507 -142 c42 -4 79 -10 82 -13 12 -12 18 -125 11
-223 l-7 -107 -299 3 c-253 3 -301 5 -309 18 -11 17 -12 252 -1 290 6 22 14
26 61 31 79 8 372 9 462 1z m-2363 -432 c16 -8 20 -28 26 -137 9 -143 1 -321
-14 -336 -15 -15 -162 -25 -357 -26 -224 -1 -231 0 -245 53 -16 59 -18 421 -2
437 7 7 56 16 110 20 126 10 458 2 482 -11z m4908 -6 c20 -26 15 -456 -5 -476
-10 -10 -74 -14 -260 -16 -136 -2 -271 -1 -300 3 -69 9 -72 16 -79 225 -7 201
-1 256 30 266 42 13 225 22 411 20 173 -2 190 -4 203 -22z m-4193 -178 c8
-208 3 -278 -22 -298 -11 -10 -81 -13 -288 -13 -249 0 -275 2 -291 18 -16 16
-18 43 -21 238 -3 162 -1 223 8 234 10 13 60 15 310 15 l297 0 7 -194z m3473
182 c11 -17 17 -314 8 -395 -11 -107 -1 -103 -299 -103 -140 0 -266 4 -279 9
-13 5 -28 18 -33 28 -9 21 -19 436 -10 459 4 12 53 14 305 14 229 0 302 -3
308 -12z m-1732 -254 c8 -135 2 -213 -17 -225 -23 -15 -155 -21 -365 -17 -116
1 -214 6 -218 10 -16 15 -25 91 -25 211 -1 70 2 132 5 137 4 6 120 10 310 10
l303 0 7 -126z m-2442 -333 c9 -9 12 -70 12 -227 0 -180 -2 -216 -15 -224 -9
-6 -140 -10 -306 -10 -257 0 -293 2 -298 16 -6 15 -9 453 -3 455 1 1 63 4 137
8 183 8 457 -2 473 -18z m4080 13 c84 -6 89 -8 99 -33 15 -38 6 -407 -11 -424
-9 -9 -90 -13 -305 -15 l-293 -3 -7 23 c-9 37 -7 422 4 438 5 9 33 17 67 21
59 7 288 3 446 -7z m-3431 0 l45 -6 7 -75 c3 -42 3 -147 -1 -235 l-6 -159
-293 3 c-224 2 -296 6 -306 16 -10 10 -14 66 -16 217 -3 195 -2 205 17 224 20
20 32 21 265 21 134 0 263 -3 288 -6z m4240 -12 c9 -9 13 -66 13 -228 0 -180
-2 -216 -15 -224 -33 -21 -606 -8 -628 15 -13 12 -7 367 6 413 l13 44 299 -4
c226 -2 302 -6 312 -16z m-2508 -121 c21 -5 43 -14 49 -20 15 -15 20 -99 12
-216 l-7 -105 -306 2 -307 3 -3 141 c-3 170 3 191 55 197 78 8 470 6 507 -2z
m-2394 -431 c15 -8 19 -28 25 -102 10 -139 3 -332 -14 -351 -12 -15 -45 -17
-295 -17 -159 0 -287 4 -296 10 -12 8 -15 46 -18 222 -1 126 2 219 7 228 7 11
37 17 98 22 118 8 471 0 493 -12z m692 5 c11 -4 20 -24 24 -53 10 -69 -2 -392
-16 -406 -13 -13 -372 -25 -494 -16 -119 8 -118 6 -114 251 2 134 7 202 15
210 6 6 47 15 90 19 89 10 469 6 495 -5z m3475 -2 c31 -7 37 -58 31 -261 -6
-175 -9 -197 -36 -207 -22 -8 -522 -8 -555 0 -24 6 -26 12 -32 78 -3 40 -5
144 -3 232 l3 160 50 7 c55 7 507 0 542 -9z m748 -128 c7 -134 4 -329 -6 -339
-3 -3 -144 -6 -314 -6 -287 -1 -309 0 -319 17 -17 29 -15 426 3 446 12 15 47
17 321 17 l308 0 7 -135z m-2472 -14 c8 -8 12 -60 12 -157 0 -126 -2 -147 -17
-158 -34 -25 -570 -27 -595 -3 -12 13 -17 297 -5 309 26 26 581 33 605 9z
m2162 -392 c224 2 273 -1 290 -13 19 -14 20 -26 20 -235 0 -162 -3 -223 -12
-232 -25 -25 -584 -23 -624 2 -11 7 -14 50 -14 223 l0 214 25 24 c14 14 29 22
35 19 5 -2 131 -4 280 -2z m-4620 -13 c27 -12 35 -22 41 -52 9 -50 -1 -403
-12 -414 -13 -13 -463 -23 -544 -13 l-65 8 0 226 c0 177 3 230 14 242 12 15
44 17 273 17 201 0 266 -3 293 -14z m710 -6 c19 -21 20 -37 20 -236 0 -162 -3
-216 -13 -226 -19 -19 -574 -17 -596 2 -14 10 -16 42 -16 199 0 230 4 257 38
269 14 4 143 9 286 11 257 2 262 2 281 -19z m3463 6 c28 -15 31 -21 37 -88 11
-115 2 -365 -13 -380 -9 -9 -82 -12 -303 -13 -247 0 -291 2 -300 15 -6 9 -9
97 -7 232 3 198 5 218 22 231 14 10 78 14 276 16 217 2 263 0 288 -13z m-1750
-142 c49 -7 55 -34 48 -194 -4 -74 -8 -135 -9 -137 -9 -8 -436 -13 -517 -6
l-95 8 -3 145 c-3 192 -10 183 150 191 127 5 368 2 426 -7z m-2396 -432 c10
-10 13 -64 13 -222 0 -188 -2 -211 -18 -227 -16 -16 -42 -18 -298 -18 -266 0
-281 1 -295 19 -11 16 -14 62 -14 215 0 108 3 206 6 218 4 14 16 24 33 26 14
3 146 4 293 3 204 -1 270 -4 280 -14z m702 -157 c4 -96 4 -202 0 -236 -6 -53
-10 -62 -33 -71 -27 -10 -485 -4 -548 8 -43 8 -45 22 -41 257 3 173 5 190 22
203 16 11 75 14 306 14 l287 0 7 -175z m3468 157 c18 -18 19 -435 1 -453 -18
-18 -577 -19 -594 -2 -14 14 -27 401 -15 448 l7 27 294 -4 c224 -2 297 -6 307
-16z m725 5 c11 -11 11 -453 0 -464 -13 -12 -370 -16 -502 -5 -65 6 -122 15
-129 22 -13 13 -16 363 -3 423 l8 38 309 -3 c169 -2 312 -7 317 -11z m-2469
-135 c8 -6 14 -52 18 -148 6 -127 5 -141 -12 -162 -26 -32 -86 -36 -378 -27
l-236 7 0 147 c0 80 3 156 6 169 l6 22 292 0 c160 0 297 -4 304 -8z m-2468
-408 c21 -5 35 -15 42 -33 17 -40 17 -426 0 -443 -15 -15 -461 -24 -552 -11
l-55 8 -3 195 c-2 107 0 214 3 237 5 38 9 42 38 46 55 7 493 7 527 1z m722
-12 c24 -19 30 -101 22 -300 l-7 -183 -293 3 c-224 2 -296 6 -306 16 -19 19
-19 432 0 455 19 22 53 25 328 23 178 -1 245 -4 256 -14z m3457 12 c42 -9 46
-34 46 -271 0 -144 -3 -195 -13 -205 -10 -10 -82 -14 -306 -16 l-293 -3 -7 23
c-8 31 -6 407 3 438 5 20 15 26 46 31 54 8 485 11 524 3z m736 -4 l25 -10 -2
-237 -3 -238 -300 -3 c-249 -2 -304 0 -320 12 -19 13 -20 27 -20 198 0 101 4
204 8 230 7 43 11 47 40 51 71 9 547 6 572 -3z m-2490 -138 l50 -7 9 -56 c5
-30 5 -108 1 -172 l-7 -118 -299 3 c-253 3 -301 5 -309 18 -11 17 -12 262 -1
300 5 19 16 27 41 31 47 9 453 9 515 1z m-1707 -427 l27 -25 3 -178 c4 -195
-5 -254 -41 -274 -16 -9 -91 -14 -266 -15 -328 -3 -317 -10 -321 192 -5 213
-2 260 19 286 19 24 21 24 273 29 139 3 259 7 266 8 7 1 25 -9 40 -23z m4169
10 l51 -15 7 -117 c8 -122 2 -315 -10 -345 -7 -17 -31 -18 -304 -18 -163 0
-302 4 -309 9 -19 11 -32 117 -31 256 0 143 10 204 35 219 12 7 112 13 259 16
132 3 243 7 246 8 3 1 28 -5 56 -13z m-4944 -4 c53 -4 99 -10 101 -12 2 -2 6
-106 10 -230 l7 -227 -32 -11 c-40 -14 -537 -15 -573 -1 l-26 10 0 218 c0 159
3 223 13 235 9 12 32 17 97 20 174 6 308 6 403 -2z m4264 -14 c16 -16 18 -43
21 -236 l4 -219 -37 -12 c-40 -13 -499 -17 -554 -5 -26 6 -31 12 -37 51 -11
77 0 399 14 417 20 24 36 25 314 23 233 -1 259 -3 275 -19z m-1731 -140 c11
-11 17 -167 9 -242 -3 -36 -13 -72 -22 -80 -21 -22 -549 -22 -579 -1 -17 13
-19 30 -23 135 -4 151 2 188 32 194 37 8 575 3 583 -6z m-1999 -398 c201 0
224 -2 245 -19 23 -18 23 -22 23 -229 0 -178 -2 -213 -16 -226 -32 -33 -559
-29 -592 4 -16 16 -22 365 -7 420 9 34 15 41 35 41 14 0 25 5 25 11 0 7 12 9
33 5 18 -3 132 -6 254 -7z m-440 -22 c16 -16 18 -39 18 -228 0 -191 -2 -212
-18 -224 -38 -28 -567 -29 -594 -1 -11 10 -10 442 0 452 13 14 169 22 379 20
175 -1 199 -3 215 -19z m4170 0 c16 -15 18 -41 21 -194 6 -288 17 -275 -244
-281 -244 -6 -329 2 -361 34 l-24 25 3 203 c2 113 7 208 11 212 14 14 156 22
369 20 184 -1 209 -3 225 -19z m719 1 c22 -22 33 -424 13 -450 -13 -16 -46
-18 -315 -24 l-302 -7 -13 24 c-15 27 -20 365 -6 431 10 47 2 46 340 44 227
-2 270 -4 283 -18z m-2441 -234 c8 -114 2 -201 -15 -218 -28 -28 -569 -30
-597 -2 -4 4 -10 72 -11 150 -3 123 -1 145 13 159 15 15 50 17 310 17 l293 0
7 -106z m-2440 -325 c16 -16 13 -435 -3 -451 -18 -18 -559 -26 -591 -9 -21 12
-21 16 -19 239 l3 227 45 7 c66 9 553 -2 565 -13z m690 0 c17 -17 13 -432 -4
-452 -12 -15 -40 -17 -225 -16 -256 1 -364 9 -376 29 -6 8 -10 106 -10 218 0
194 1 203 22 224 21 21 23 21 302 14 170 -4 285 -11 291 -17z m3480 0 c15 -15
13 -435 -1 -449 -14 -14 -344 -27 -489 -20 l-100 5 -14 40 c-17 51 -19 332 -2
392 9 34 17 43 39 47 49 8 557 -5 567 -15z m683 15 c19 -4 33 -14 37 -28 11
-34 18 -288 10 -360 -11 -104 9 -98 -336 -94 -163 1 -301 6 -305 10 -9 10 -11
444 -2 454 4 4 25 10 45 14 47 9 509 12 551 4z m-2450 -140 c13 -4 25 -18 30
-33 10 -36 9 -287 -1 -298 -5 -4 -141 -8 -303 -8 -251 0 -296 2 -304 15 -11
17 -13 230 -4 280 4 19 15 35 28 40 24 10 519 13 554 4z m-2464 -420 c33 -5
50 -13 58 -28 18 -31 17 -420 0 -438 -25 -25 -561 -23 -603 2 -11 8 -14 43
-12 197 3 236 7 256 53 264 48 9 446 11 504 3z m743 -17 c16 -16 18 -38 15
-234 -1 -119 -4 -219 -7 -221 -2 -2 -137 -5 -300 -6 -253 -1 -297 1 -306 14
-11 18 -8 434 4 446 16 16 108 22 339 20 214 -1 239 -3 255 -19z m3465 5 c22
-9 28 -20 34 -58 11 -73 -1 -383 -15 -397 -13 -13 -585 -16 -599 -3 -11 12
-14 408 -3 438 7 18 19 28 38 31 53 10 517 0 545 -11z m740 0 c16 -16 24 -429
9 -451 -18 -28 -588 -28 -632 -1 -11 8 -14 46 -13 207 1 219 7 249 51 256 15
3 150 4 300 3 207 -1 275 -4 285 -14z m-2519 -129 l67 -6 0 -163 0 -164 -310
0 -310 0 0 160 c0 157 0 161 23 170 25 10 429 13 530 3z"/>
<path d="M2778 1095 c-1 -63 -2 -123 -2 -132 -1 -15 9 -19 59 -21 100 -5 102
-4 102 78 0 84 14 108 44 71 21 -26 26 -90 8 -108 -7 -7 -9 -19 -6 -27 8 -21
135 -23 143 -3 6 18 -21 146 -35 160 -8 8 -11 0 -12 -29 -1 -21 -3 -46 -4 -54
-1 -8 -3 -21 -4 -27 0 -7 -7 -13 -15 -13 -9 0 -16 18 -21 55 -8 65 -23 77 -93
73 l-47 -3 -1 -50 c-2 -88 -23 -118 -55 -78 -16 18 -19 151 -5 196 8 25 6 27
-23 27 l-31 0 -2 -115z"/>
<path d="M3846 1166 c-3 -14 -19 -32 -36 -41 -39 -20 -60 -53 -60 -93 0 -75
38 -98 123 -75 53 15 59 15 96 -2 59 -26 85 -4 31 27 -41 24 -39 51 6 67 46
16 97 7 140 -26 28 -21 32 -28 23 -45 -9 -17 -8 -19 12 -16 12 2 24 8 26 14 7
21 -47 72 -113 108 -94 52 -117 48 -168 -28 l-26 -39 -1 59 c-1 32 -4 70 -8
84 -9 34 -37 38 -45 6z"/>
<path d="M4381 1113 c-20 -16 -22 -26 -19 -93 l3 -75 35 -3 c20 -2 47 1 60 6
25 9 25 9 -7 16 -39 9 -42 24 -8 56 27 25 50 83 40 100 -10 16 -81 12 -104 -7z"/>
<path d="M4572 1122 c-29 -2 -50 -7 -47 -12 3 -6 6 -41 7 -80 0 -45 5 -73 14
-81 27 -23 38 -4 38 68 1 78 8 93 34 77 20 -13 29 -98 12 -118 -13 -17 13 -41
35 -32 11 4 15 19 14 58 -3 114 -13 125 -107 120z"/>
</g>
</svg>
